#tb 0: 3/100
#media_type 0: video
#codec_id 0: rawvideo
#dimensions 0: 320x240
#sar 0: 0/1
0,          0,          0,        1,   192000, 0x41a50269
0,          1,          1,        1,   192000, 0xb54a0286
0,          2,          2,        1,   192000, 0x842c01ab
0,          3,          3,        1,   192000, 0x19b0fd8f
0,          4,          4,        1,   192000, 0x9eb9fb71
0,          5,          5,        1,   192000, 0x1e11fb1d
0,          6,          6,        1,   192000, 0x4e33fe49
0,          7,          7,        1,   192000, 0x2e4fffa4
0,          8,          8,        1,   192000, 0xfa74ff7f
0,          9,          9,        1,   192000, 0x695ff5dd
0,         10,         10,        1,   192000, 0xd263ff87
0,         11,         11,        1,   192000, 0x8eb2f958
0,         12,         12,        1,   192000, 0x2630f6dd
0,         13,         13,        1,   192000, 0xf84af899
0,         14,         14,        1,   192000, 0xed44fcca
0,         15,         15,        1,   192000, 0x94e5f617
0,         16,         16,        1,   192000, 0x2774f83c
0,         17,         17,        1,   192000, 0x081dfdeb
0,         18,         18,        1,   192000, 0xbca7050c
0,         19,         19,        1,   192000, 0x78211c16
0,         20,         20,        1,   192000, 0x77de154e
0,         21,         21,        1,   192000, 0x553bfdfc
0,         22,         22,        1,   192000, 0x57e8f16e
0,         23,         23,        1,   192000, 0xccb0ef52
0,         24,         24,        1,   192000, 0xee15e30e
0,         25,         25,        1,   192000, 0x9166de93
0,         26,         26,        1,   192000, 0x60c5da31
0,         27,         27,        1,   192000, 0x1944d84f
0,         28,         28,        1,   192000, 0xd826d9a5
0,         29,         29,        1,   192000, 0x175fd3ca
0,         30,         30,        1,   192000, 0x993bdae7
0,         31,         31,        1,   192000, 0x3a0fd8af
0,         32,         32,        1,   192000, 0xf23ad933
0,         33,         33,        1,   192000, 0x7ad5e2e3
0,         34,         34,        1,   192000, 0x4796f2ee
0,         35,         35,        1,   192000, 0x52a0f3ab
0,         36,         36,        1,   192000, 0x1b3ef6da
0,         37,         37,        1,   192000, 0x7478f41f
0,         38,         38,        1,   192000, 0x5e7d00bc
0,         39,         39,        1,   192000, 0x4436fc7a
0,         40,         40,        1,   192000, 0x4f82f88e
0,         41,         41,        1,   192000, 0x6bb7f834
0,         42,         42,        1,   192000, 0xf611f604
0,         43,         43,        1,   192000, 0xb8bff5b0
0,         44,         44,        1,   192000, 0x40a7f673
0,         45,         45,        1,   192000, 0xc922f8a5
0,         46,         46,        1,   192000, 0xefe6f678
0,         47,         47,        1,   192000, 0x33c9f434
0,         48,         48,        1,   192000, 0xca85f2a3
0,         49,         49,        1,   192000, 0x12a8f922
0,         50,         50,        1,   192000, 0x7492f8ae
0,         51,         51,        1,   192000, 0x73c5f8bb
0,         52,         52,        1,   192000, 0x3f8bf999
0,         53,         53,        1,   192000, 0x3a13f7bf
0,         54,         54,        1,   192000, 0x582bff4e
0,         55,         55,        1,   192000, 0xca85fed4
0,         56,         56,        1,   192000, 0x51c5fbb3
0,         57,         57,        1,   192000, 0x6326fd07
0,         58,         58,        1,   192000, 0x3c2efc01
0,         59,         59,        1,   192000, 0xc769ff48
0,         60,         60,        1,   192000, 0x954e01d3
0,         61,         61,        1,   192000, 0x3a2ffe57
0,         62,         62,        1,   192000, 0xe453ff5c
0,         63,         63,        1,   192000, 0x9aeefc2a
0,         64,         64,        1,   192000, 0x437ef61f
0,         65,         65,        1,   192000, 0x4eb3fd83
0,         66,         66,        1,   192000, 0x2650015d
0,         67,         67,        1,   192000, 0xd82afc78
0,         68,         68,        1,   192000, 0x07d0fd48
0,         69,         69,        1,   192000, 0xc799fcc4
0,         70,         70,        1,   192000, 0xc95d04f3
0,         71,         71,        1,   192000, 0x13eb06ab
0,         72,         72,        1,   192000, 0xa7600439
0,         73,         73,        1,   192000, 0x888304fa
0,         74,         74,        1,   192000, 0xd8780597
0,         75,         75,        1,   192000, 0x2549049c
0,         76,         76,        1,   192000, 0xc8c802a6
0,         77,         77,        1,   192000, 0xcf9d02d0
0,         78,         78,        1,   192000, 0x001001c2
0,         79,         79,        1,   192000, 0xb9d308b0
0,         80,         80,        1,   192000, 0x67a9086a
0,         81,         81,        1,   192000, 0x10d908d4
0,         82,         82,        1,   192000, 0x24be0ac2
0,         83,         83,        1,   192000, 0x1cb5099a
0,         84,         84,        1,   192000, 0x9c7a0a6a
0,         85,         85,        1,   192000, 0x11860d4b
0,         86,         86,        1,   192000, 0x1c230cbc
0,         87,         87,        1,   192000, 0xa3be0b89
0,         88,         88,        1,   192000, 0x0485081d
0,         89,         89,        1,   192000, 0xbe9805fb
0,         90,         90,        1,   192000, 0x022701d8
0,         91,         91,        1,   192000, 0xffbc0318
0,         92,         92,        1,   192000, 0x3335028f
0,         93,         93,        1,   192000, 0xb5360198
0,         94,         94,        1,   192000, 0x904f0405
0,         95,         95,        1,   192000, 0x16fd0074
0,         96,         96,        1,   192000, 0xb98c001f
0,         97,         97,        1,   192000, 0x527bfd4b
0,         98,         98,        1,   192000, 0x792bfb20
0,         99,         99,        1,   192000, 0x34acfaea
0,        100,        100,        1,   192000, 0x7c6bfe5e
